<?xml version="1.0" standalone="no"?>
<!DOCTYPE svg PUBLIC "-//W3C//DTD SVG 20010904//EN"
 "http://www.w3.org/TR/2001/REC-SVG-20010904/DTD/svg10.dtd">
<svg version="1.0" xmlns="http://www.w3.org/2000/svg"
 width="280.000000pt" height="280.000000pt" viewBox="0 0 280.000000 280.000000"
 preserveAspectRatio="xMidYMid meet">

<g transform="translate(0.000000,280.000000) scale(0.100000,-0.100000)"
fill="#000000" stroke="none">
<path d="M675 2614 c-9 -14 -31 -54 -49 -88 -101 -190 -140 -262 -147 -270 -5
-6 -9 -14 -9 -18 0 -4 160 -8 355 -8 l355 0 0 -685 0 -685 205 0 205 0 0 685
0 685 139 0 c99 0 141 -4 149 -12 10 -14 44 -77 208 -385 24 -45 56 -103 72
-130 l28 -48 227 -3 227 -2 -31 57 c-18 32 -47 83 -66 114 -18 31 -33 60 -33
64 0 4 -15 33 -34 64 -19 31 -51 88 -71 126 -21 39 -49 90 -63 115 -14 25 -52
95 -85 155 -33 61 -77 142 -99 180 -21 39 -44 80 -50 93 l-11 22 -702 0 -703
0 -17 -26z"/>
<path d="M286 1898 c-24 -50 -80 -155 -156 -293 -18 -33 -53 -98 -77 -144
l-45 -84 30 -56 c30 -56 162 -286 262 -456 29 -49 63 -108 75 -130 62 -110
295 -511 315 -542 l15 -23 696 0 697 0 41 66 c22 36 41 68 41 71 0 3 18 34 40
69 22 35 40 66 40 69 0 3 16 31 36 62 20 31 39 63 42 72 9 20 81 144 133 228
22 34 39 65 39 68 0 2 18 34 40 70 22 36 40 68 40 70 0 3 17 34 38 68 22 34
60 100 87 147 26 47 54 95 62 108 l13 22 -229 0 -230 0 -72 -122 c-40 -68
-102 -172 -137 -233 -36 -60 -73 -122 -83 -137 -11 -15 -19 -30 -19 -33 0 -7
-89 -158 -128 -218 l-25 -37 -470 2 -470 3 -55 95 c-30 52 -77 133 -105 180
-74 126 -87 149 -140 241 -27 46 -73 126 -103 178 -30 51 -54 98 -54 102 0 5
23 51 51 101 53 96 126 232 162 303 11 22 35 65 54 96 18 31 33 59 33 63 0 3
-103 6 -229 6 l-229 0 -26 -52z"/>
</g>
</svg>
